<?xml version="1.0" encoding="UTF-8" standalone="no"?>
<svg
   xmlns:dc="http://purl.org/dc/elements/1.1/"
   xmlns:cc="http://creativecommons.org/ns#"
   xmlns:rdf="http://www.w3.org/1999/02/22-rdf-syntax-ns#"
   xmlns:svg="http://www.w3.org/2000/svg"
   xmlns="http://www.w3.org/2000/svg"
   xmlns:xlink="http://www.w3.org/1999/xlink"
   id="svg8"
   version="1.1"
   viewBox="0 0 343.74872 122.29236"
   height="122.29237mm"
   width="343.74872mm">
  <defs
     id="defs2">
    <linearGradient
       id="linearGradient823">
      <stop
         id="stop819"
         offset="0"
         style="stop-color:#ff2c00;stop-opacity:1" />
      <stop
         id="stop821"
         offset="1"
         style="stop-color:#ff9e00;stop-opacity:1" />
    </linearGradient>
    <linearGradient
       gradientTransform="translate(-44.223214,15.875)"
       gradientUnits="userSpaceOnUse"
       y2="174.3609"
       x2="380.32553"
       y1="177.00673"
       x1="53.786007"
       id="linearGradient825"
       xlink:href="#linearGradient823" />
    <linearGradient
       gradientTransform="matrix(1.425509,0,0,1.4255091,64.221944,-32.948957)"
       gradientUnits="userSpaceOnUse"
       y2="82.280746"
       x2="225.03535"
       y1="98.075653"
       x1="169.29544"
       id="linearGradient839"
       xlink:href="#linearGradient823" />
    <linearGradient
       gradientTransform="translate(183.2027,54.060642)"
       gradientUnits="userSpaceOnUse"
       y2="174.3609"
       x2="150.13803"
       y1="175.11685"
       x1="-179.80328"
       id="linearGradient825-1"
       xlink:href="#linearGradient823" />
    <linearGradient
       y2="174.3609"
       x2="380.32553"
       y1="177.00673"
       x1="53.786007"
       gradientTransform="matrix(0.88798509,0,0,0.88798509,-29.294568,30.329451)"
       gradientUnits="userSpaceOnUse"
       id="linearGradient954"
       xlink:href="#linearGradient823" />
    <linearGradient
       y2="174.3609"
       x2="380.32553"
       y1="177.00673"
       x1="53.786007"
       gradientTransform="translate(-44.223214,15.875)"
       gradientUnits="userSpaceOnUse"
       id="linearGradient833"
       xlink:href="#linearGradient823" />
    <linearGradient
       y2="174.3609"
       x2="380.32553"
       y1="177.00673"
       x1="53.786007"
       gradientTransform="translate(-44.223214,15.875)"
       gradientUnits="userSpaceOnUse"
       id="linearGradient835"
       xlink:href="#linearGradient823" />
    <linearGradient
       y2="174.3609"
       x2="380.32553"
       y1="177.00673"
       x1="53.786007"
       gradientTransform="translate(-44.223214,15.875)"
       gradientUnits="userSpaceOnUse"
       id="linearGradient837"
       xlink:href="#linearGradient823" />
    <linearGradient
       y2="174.3609"
       x2="380.32553"
       y1="177.00673"
       x1="53.786007"
       gradientTransform="translate(-44.223214,15.875)"
       gradientUnits="userSpaceOnUse"
       id="linearGradient840"
       xlink:href="#linearGradient823" />
    <linearGradient
       y2="174.3609"
       x2="380.32553"
       y1="177.00673"
       x1="53.786007"
       gradientTransform="translate(-44.223214,15.875)"
       gradientUnits="userSpaceOnUse"
       id="linearGradient842"
       xlink:href="#linearGradient823" />
    <linearGradient
       y2="174.3609"
       x2="150.13803"
       y1="175.11685"
       x1="-179.80328"
       gradientTransform="translate(183.2027,54.060642)"
       gradientUnits="userSpaceOnUse"
       id="linearGradient844"
       xlink:href="#linearGradient823" />
    <linearGradient
       y2="174.3609"
       x2="150.13803"
       y1="175.11685"
       x1="-179.80328"
       gradientTransform="translate(183.2027,54.060642)"
       gradientUnits="userSpaceOnUse"
       id="linearGradient846"
       xlink:href="#linearGradient823" />
    <linearGradient
       y2="174.3609"
       x2="150.13803"
       y1="175.11685"
       x1="-179.80328"
       gradientTransform="translate(183.2027,54.060642)"
       gradientUnits="userSpaceOnUse"
       id="linearGradient848"
       xlink:href="#linearGradient823" />
    <linearGradient
       y2="174.3609"
       x2="150.13803"
       y1="175.11685"
       x1="-179.80328"
       gradientTransform="translate(183.2027,54.060642)"
       gradientUnits="userSpaceOnUse"
       id="linearGradient850"
       xlink:href="#linearGradient823" />
  </defs>
  <metadata
     id="metadata5">
    <rdf:RDF>
      <cc:Work
         rdf:about="">
        <dc:format>image/svg+xml</dc:format>
        <dc:type
           rdf:resource="http://purl.org/dc/dcmitype/StillImage" />
        <dc:title></dc:title>
      </cc:Work>
    </rdf:RDF>
  </metadata>
  <g
     transform="translate(-1.941977,-137.11324)"
     id="layer1">
    <g
       id="text817"
       style="font-style:normal;font-variant:normal;font-weight:bold;font-stretch:normal;font-size:50.79999924px;line-height:1.25;font-family:Cambria;-inkscape-font-specification:'Cambria Bold';letter-spacing:0px;word-spacing:0px;fill:url(#linearGradient825);fill-opacity:1;stroke:none;stroke-width:0.26458332"
       aria-label="Bl🔥zor">
      <path
         id="path929"
         style="font-style:normal;font-variant:normal;font-weight:bold;font-stretch:normal;font-size:69.14444733px;font-family:Calibri;-inkscape-font-specification:'Calibri Bold';fill:url(#linearGradient833);fill-opacity:1;stroke-width:0.26458332"
         d="m 43.576913,197.34382 q 0,2.32957 -0.641477,4.22024 -0.641477,1.89067 -1.789383,3.34243 -1.114144,1.45177 -2.700955,2.49839 -1.553049,1.04662 -3.443717,1.72186 -1.890669,0.67523 -4.051433,1.01285 -2.127002,0.30386 -4.760433,0.30386 H 14.575409 q -1.114144,0 -1.890669,-0.64148 -0.742763,-0.67523 -0.742763,-2.16076 v -38.08346 q 0,-1.48553 0.742763,-2.12701 0.776525,-0.67524 1.890669,-0.67524 h 10.972629 q 4.017671,0 6.786149,0.67524 2.802241,0.67524 4.69291,2.05948 1.92443,1.35048 2.937288,3.44372 1.012858,2.09324 1.012858,4.92924 0,1.58681 -0.405143,3.00481 -0.405143,1.38424 -1.181668,2.53215 -0.776524,1.14791 -1.92443,2.02572 -1.114144,0.87781 -2.565907,1.418 1.856906,0.33762 3.409955,1.18166 1.586811,0.84405 2.734717,2.19453 1.181668,1.31672 1.856907,3.1061 0.675239,1.78938 0.675239,4.01767 z M 32.097854,178.94356 q 0,-1.31671 -0.405143,-2.36333 -0.405144,-1.04662 -1.21543,-1.72186 -0.810287,-0.709 -2.059478,-1.08038 -1.21543,-0.37138 -3.274908,-0.37138 h -4.490338 v 11.34401 h 4.963005 q 1.92443,0 3.072336,-0.43891 1.147906,-0.47267 1.890669,-1.24919 0.776524,-0.81029 1.147906,-1.85691 0.371381,-1.08038 0.371381,-2.26205 z m 2.26205,18.70412 q 0,-1.51929 -0.506429,-2.70096 -0.506429,-1.21543 -1.485526,-2.02571 -0.979096,-0.81029 -2.498383,-1.2492 -1.519287,-0.4389 -3.950147,-0.4389 h -5.266862 v 12.42439 h 6.414768 q 1.856907,0 3.106099,-0.37138 1.282953,-0.40514 2.194525,-1.14791 0.945335,-0.77652 1.451764,-1.89066 0.540191,-1.14791 0.540191,-2.59967 z" />
      <path
         id="path931"
         style="font-style:normal;font-variant:normal;font-weight:bold;font-stretch:normal;font-size:69.14444733px;font-family:Calibri;-inkscape-font-specification:'Calibri Bold';fill:url(#linearGradient835);fill-opacity:1;stroke-width:0.26458332"
         d="m 58.702262,209.29555 q 0,0.33761 -0.202572,0.60771 -0.202572,0.23633 -0.709001,0.40514 -0.472667,0.16881 -1.282953,0.23634 -0.810287,0.10128 -2.059478,0.10128 -1.249192,0 -2.059479,-0.10128 -0.810286,-0.0675 -1.316715,-0.23634 -0.472667,-0.16881 -0.675239,-0.40514 -0.202571,-0.2701 -0.202571,-0.60771 V 164.8986 q 0,-0.33762 0.202571,-0.60772 0.202572,-0.27009 0.675239,-0.4389 0.506429,-0.20257 1.316715,-0.30386 0.810287,-0.10129 2.059479,-0.10129 1.249191,0 2.059478,0.10129 0.810286,0.10129 1.282953,0.30386 0.506429,0.16881 0.709001,0.4389 0.202572,0.2701 0.202572,0.60772 z" />
      <path
         id="path933"
         style="font-size:47.27222061px;fill:url(#linearGradient954);stroke-width:0.23494604"
         d="m 106.48297,181.008 v 13.2613 q 0,2.43909 -0.6354,4.69372 -0.63539,2.25462 -1.7832,4.2223 -1.14781,1.96766 -2.76704,3.5664 -1.619234,1.61923 -3.586907,2.76704 -1.967673,1.14781 -4.222298,1.78321 -2.254626,0.63539 -4.693721,0.63539 -2.439095,0 -4.69372,-0.63539 -2.254625,-0.6354 -4.222299,-1.78321 -1.967673,-1.14781 -3.586904,-2.76704 -1.598735,-1.59874 -2.746543,-3.5664 -1.14781,-1.96768 -1.783205,-4.2223 -0.635394,-2.25463 -0.635394,-4.69372 0,-2.04966 0.409932,-4.05833 0.409932,-2.02917 1.188803,-3.91485 0.799366,-1.88569 1.926679,-3.58691 1.14781,-1.72171 2.603068,-3.17697 h -1.701217 v -5.90301 q 0,-0.86086 0.245959,-1.70122 0.266456,-0.84036 0.737877,-1.55775 0.471422,-0.71737 1.127313,-1.27078 0.655891,-0.57391 1.475754,-0.90185 0.758375,-0.30745 1.434762,-0.36894 0.696885,-0.082 1.414266,-0.082 h 0.922346 v -2.95151 h 1.783204 q 1.045326,0 2.070156,0.0614 1.02483,0.041 2.04966,0.24597 2.152143,0.40993 4.037829,1.45525 1.906183,1.04533 3.402435,2.56207 1.516748,1.49626 2.562074,3.40244 1.045327,1.90619 1.475751,4.03783 0.20497,0.96334 0.24597,1.94717 0.041,0.96334 0.041,1.94719 v 0.98383 q 1.16831,-0.26646 2.31612,-0.34845 1.14781,-0.082 2.31612,-0.082 z m -2.95151,13.44577 v -10.51476 q -1.7832,0 -3.21797,0.79937 -1.434758,0.77887 -2.603067,2.07016 l -0.06149,0.082 v -7.35828 q 0,-0.6559 -0.08199,-1.31179 -0.08199,-0.65588 -0.225462,-1.31177 -0.430428,-2.00867 -1.516748,-3.6894 -1.08632,-1.68071 -2.623564,-2.89001 -1.537245,-1.2298 -3.422931,-1.90619 -1.885687,-0.67639 -3.91485,-0.67639 v 0.20497 q 0,1.63973 -0.348442,3.34095 -0.348443,1.68072 -1.02483,3.27945 -0.655891,1.59874 -1.598735,3.05399 -0.942843,1.43476 -2.111149,2.58257 -0.471422,0.47143 -0.96334,0.92235 -0.471421,0.43043 -0.922347,0.92235 -1.08632,1.22979 -1.98817,2.62357 -0.881353,1.39376 -1.516748,2.931 -0.635394,1.51675 -0.983836,3.13598 -0.327946,1.59874 -0.327946,3.25896 0,3.66889 1.475755,6.76388 1.475755,3.07449 4.406768,5.28812 v -4.42726 q 0,-1.25029 0.327946,-2.15215 0.327945,-0.90184 0.819864,-1.61923 0.491918,-0.73787 1.065823,-1.37327 0.573904,-0.65589 1.065822,-1.37327 0.491919,-0.73788 0.819865,-1.63972 0.327945,-0.90186 0.327945,-2.15215 1.824196,0 3.422931,0.69688 1.619231,0.69689 2.808034,1.90619 1.209299,1.1888 1.906183,2.80804 0.696885,1.59872 0.696885,3.42292 0.942843,-0.75837 2.090652,-1.10681 1.14781,-0.36894 2.336612,-0.36894 v 7.37877 q 1.352771,-1.00433 2.43909,-2.31611 1.08633,-1.29129 1.8447,-2.78754 0.77887,-1.51675 1.1888,-3.15647 0.40993,-1.63973 0.40993,-3.34095 z m -14.737056,7.17381 q -0.922346,0 -1.721714,0.34843 -0.799367,0.34845 -1.393768,0.96334 -0.594401,0.59441 -0.942844,1.39378 -0.348442,0.79936 -0.348442,1.72171 v 2.25462 q 2.152143,0.67639 4.427265,0.67639 2.275122,0 4.406768,-0.67639 v -3.73038 l -4.427265,1.47576 z M 78.484617,173.62923 v 2.9515 q 0.614898,0 1.147809,-0.22546 0.532911,-0.24596 0.922347,-0.63539 0.409932,-0.40993 0.635394,-0.94285 0.24596,-0.53291 0.24596,-1.1478 v -2.93102 h -0.307449 q -0.532912,0 -1.02483,0.26646 -0.471422,0.26645 -0.840361,0.69688 -0.348442,0.40993 -0.573905,0.94285 -0.204965,0.51241 -0.204965,1.02483 z" />
      <path
         id="path935"
         style="font-style:normal;font-variant:normal;font-weight:bold;font-stretch:normal;font-size:69.14444733px;font-family:Calibri;-inkscape-font-specification:'Calibri Bold';fill:url(#linearGradient837);fill-opacity:1;stroke-width:0.26458332"
         d="m 139.88938,206.96597 q 0,0.9791 -0.10129,1.6881 -0.10128,0.67524 -0.27009,1.08038 -0.16881,0.40514 -0.43891,0.57395 -0.27009,0.13505 -0.60771,0.13505 h -19.68321 q -0.91157,0 -1.418,-0.60771 -0.47267,-0.60772 -0.47267,-1.99196 v -1.55305 q 0,-0.60771 0.0338,-1.08038 0.0675,-0.50643 0.20257,-0.94533 0.16881,-0.47267 0.40515,-0.94534 0.27009,-0.47266 0.67524,-1.04662 L 129.4907,184.8519 h -10.66877 q -0.64148,0 -1.04662,-0.81028 -0.37138,-0.81029 -0.37138,-2.59967 0,-0.9791 0.0675,-1.62058 0.10129,-0.67523 0.2701,-1.04662 0.16881,-0.40514 0.4389,-0.57395 0.2701,-0.16881 0.64148,-0.16881 h 18.40026 q 0.47266,0 0.81028,0.10129 0.33762,0.10128 0.54019,0.37138 0.23634,0.27009 0.33762,0.74276 0.13505,0.47267 0.13505,1.18167 v 1.65433 q 0,0.67524 -0.0675,1.21543 -0.0675,0.50643 -0.20257,0.9791 -0.13505,0.47267 -0.40515,0.94533 -0.23633,0.47267 -0.57395,1.01286 l -11.20896,17.3874 h 11.8842 q 0.30386,0 0.57395,0.13505 0.2701,0.13505 0.43891,0.50643 0.20257,0.37138 0.30385,1.04662 0.10129,0.64147 0.10129,1.65433 z" />
      <path
         id="path937"
         style="font-style:normal;font-variant:normal;font-weight:bold;font-stretch:normal;font-size:69.14444733px;font-family:Calibri;-inkscape-font-specification:'Calibri Bold';fill:url(#linearGradient840);fill-opacity:1;stroke-width:0.26458332"
         d="m 175.60952,193.93386 q 0,3.84886 -1.01286,7.02249 -1.01286,3.17362 -3.07234,5.46943 -2.05947,2.29581 -5.16557,3.545 -3.1061,1.2492 -7.25882,1.2492 -4.01767,0 -6.98872,-1.11415 -2.97105,-1.11414 -4.92924,-3.24114 -1.95819,-2.12701 -2.90353,-5.2331 -0.94533,-3.1061 -0.94533,-7.09001 0,-3.84886 1.01286,-7.02248 1.04662,-3.20739 3.10609,-5.46944 2.05948,-2.29581 5.13182,-3.545 3.1061,-1.24919 7.25881,-1.24919 4.05144,0 7.02249,1.11414 2.97105,1.08038 4.89548,3.20738 1.95819,2.12701 2.90352,5.2331 0.94534,3.1061 0.94534,7.12377 z m -8.74434,0.33762 q 0,-2.22828 -0.37138,-4.08519 -0.33762,-1.89067 -1.18167,-3.27491 -0.84405,-1.38424 -2.26205,-2.16076 -1.38424,-0.77653 -3.51124,-0.77653 -1.89067,0 -3.30867,0.709 -1.418,0.67524 -2.32958,2.02572 -0.91157,1.31671 -1.38424,3.20738 -0.4389,1.85691 -0.4389,4.25401 0,2.22829 0.37138,4.11895 0.37138,1.85691 1.18167,3.24115 0.84405,1.38424 2.26205,2.16076 1.418,0.74277 3.51124,0.74277 1.92443,0 3.34243,-0.67524 1.418,-0.709 2.32957,-2.02572 0.91158,-1.31671 1.35048,-3.17362 0.43891,-1.89067 0.43891,-4.28777 z" />
      <path
         id="path939"
         style="font-style:normal;font-variant:normal;font-weight:bold;font-stretch:normal;font-size:69.14444733px;font-family:Calibri;-inkscape-font-specification:'Calibri Bold';fill:url(#linearGradient842);fill-opacity:1;stroke-width:0.26458332"
         d="m 201.63996,181.98214 q 0,1.21543 -0.0675,1.99195 -0.0675,0.77653 -0.20257,1.21543 -0.13505,0.43891 -0.37138,0.60772 -0.20257,0.16881 -0.54019,0.16881 -0.2701,0 -0.60772,-0.10129 -0.33762,-0.13505 -0.77652,-0.27009 -0.40515,-0.13505 -0.91158,-0.23634 -0.50642,-0.13505 -1.11414,-0.13505 -0.709,0 -1.418,0.30386 -0.709,0.2701 -1.48553,0.87781 -0.74276,0.60772 -1.58681,1.62057 -0.81028,1.01286 -1.75562,2.49839 v 18.77164 q 0,0.33761 -0.20257,0.60771 -0.20257,0.23633 -0.709,0.40514 -0.47267,0.16881 -1.28295,0.23634 -0.81029,0.10128 -2.05948,0.10128 -1.24919,0 -2.05948,-0.10128 -0.81029,-0.0675 -1.31672,-0.23634 -0.47266,-0.16881 -0.67523,-0.40514 -0.20258,-0.2701 -0.20258,-0.60771 V 179.1799 q 0,-0.33762 0.16881,-0.57396 0.16881,-0.27009 0.60772,-0.4389 0.4389,-0.16881 1.11414,-0.23633 0.709,-0.10129 1.75562,-0.10129 1.08039,0 1.78939,0.10129 0.709,0.0675 1.08038,0.23633 0.40514,0.16881 0.57395,0.4389 0.16881,0.23634 0.16881,0.57396 v 3.74757 q 1.18167,-1.68809 2.22829,-2.76848 1.04662,-1.11414 1.99195,-1.75562 0.94534,-0.64147 1.89067,-0.87781 0.94534,-0.27009 1.89067,-0.27009 0.4389,0 0.94533,0.0675 0.50643,0.0338 1.04662,0.16881 0.54019,0.10129 0.94534,0.2701 0.40514,0.13504 0.57395,0.30385 0.20257,0.16881 0.2701,0.37138 0.10128,0.20258 0.16881,0.57396 0.0675,0.33762 0.10128,1.04662 0.0338,0.709 0.0338,1.92443 z" />
    </g>
    <g
       id="text855"
       style="font-style:normal;font-variant:normal;font-weight:bold;font-stretch:normal;font-size:140.68449402px;line-height:1.25;font-family:Cambria;-inkscape-font-specification:'Cambria Bold';letter-spacing:0px;word-spacing:0px;fill:#ff5b00;fill-opacity:1;stroke:none;stroke-width:0.7327317"
       transform="matrix(0.81918161,0.52791503,-0.47174673,0.91671712,0,0)"
       aria-label="↑">
      <path
         id="path942"
         style="fill:#ff5b00;fill-opacity:1;stroke-width:0.7327317"
         d="M 287.12118,96.740241 V 12.453193 l -17.31078,15.24998 -6.5259,-6.800667 25.96619,-26.9965847 h 7.55629 l 25.96618,26.9965847 -6.52589,6.800667 -17.24209,-15.24998 v 84.287048 z" />
    </g>
    <g
       id="text817-6"
       style="font-style:normal;font-variant:normal;font-weight:bold;font-stretch:normal;font-size:50.79999924px;line-height:1.25;font-family:Cambria;-inkscape-font-specification:'Cambria Bold';letter-spacing:0px;word-spacing:0px;fill:url(#linearGradient825-1);fill-opacity:1;stroke:none;stroke-width:0.26458332"
       aria-label="ball">
      <path
         id="path945"
         style="font-style:normal;font-variant:normal;font-weight:bold;font-stretch:normal;font-size:69.14444733px;font-family:Calibri;-inkscape-font-specification:'Calibri Bold';fill:url(#linearGradient844);fill-opacity:1;stroke-width:0.26458332"
         d="m 269.17969,232.01822 q 0,4.01767 -0.87781,7.22505 -0.87781,3.20738 -2.53214,5.46943 -1.65434,2.26205 -4.0852,3.47748 -2.3971,1.21543 -5.46943,1.21543 -1.51929,0 -2.83601,-0.30385 -1.31671,-0.2701 -2.53214,-0.91158 -1.18167,-0.64147 -2.36334,-1.62057 -1.1479,-0.97909 -2.36333,-2.36333 v 3.2749 q 0,0.37138 -0.20257,0.64148 -0.16881,0.23633 -0.60772,0.40514 -0.40514,0.16881 -1.11414,0.23634 -0.709,0.0675 -1.72186,0.0675 -1.04662,0 -1.75562,-0.0675 -0.67524,-0.0675 -1.11415,-0.23634 -0.40514,-0.16881 -0.57395,-0.40514 -0.16881,-0.2701 -0.16881,-0.64148 v -44.39694 q 0,-0.33762 0.20257,-0.60772 0.20257,-0.27009 0.67524,-0.4389 0.50643,-0.20258 1.31672,-0.30386 0.81028,-0.10129 2.05948,-0.10129 1.24919,0 2.05947,0.10129 0.81029,0.10128 1.28296,0.30386 0.50643,0.16881 0.709,0.4389 0.20257,0.2701 0.20257,0.60772 v 16.64463 q 1.14791,-1.1479 2.29581,-1.95819 1.14791,-0.81029 2.29581,-1.31672 1.14791,-0.54019 2.36334,-0.77652 1.21543,-0.23633 2.56591,-0.23633 3.34243,0 5.672,1.35047 2.32958,1.31672 3.78134,3.57877 1.48552,2.26205 2.16076,5.30062 0.67524,3.00481 0.67524,6.34725 z m -8.81186,0.60771 q 0,-1.92443 -0.30386,-3.71381 -0.2701,-1.78938 -0.9791,-3.17362 -0.709,-1.38424 -1.8569,-2.19453 -1.11415,-0.84405 -2.83601,-0.84405 -0.84405,0 -1.65433,0.23634 -0.81029,0.23633 -1.6881,0.81028 -0.84405,0.57395 -1.75562,1.48553 -0.91157,0.91157 -1.92443,2.26205 v 9.99353 q 1.78938,2.29581 3.40996,3.51124 1.65433,1.18167 3.44371,1.18167 1.65434,0 2.80224,-0.84405 1.14791,-0.84405 1.89067,-2.19452 0.77653,-1.35048 1.11415,-3.07234 0.33762,-1.72186 0.33762,-3.44372 z" />
      <path
         id="path947"
         style="font-style:normal;font-variant:normal;font-weight:bold;font-stretch:normal;font-size:69.14444733px;font-family:Calibri;-inkscape-font-specification:'Calibri Bold';fill:url(#linearGradient846);fill-opacity:1;stroke-width:0.26458332"
         d="m 301.65867,247.58247 q 0,0.47267 -0.33762,0.74276 -0.33761,0.2701 -1.08038,0.37138 -0.709,0.13505 -2.127,0.13505 -1.51929,0 -2.22829,-0.13505 -0.67524,-0.10128 -0.97909,-0.37138 -0.2701,-0.27009 -0.2701,-0.74276 v -2.3971 q -1.85691,1.99196 -4.254,3.1061 -2.36334,1.11414 -5.26687,1.11414 -2.39709,0 -4.42281,-0.64147 -1.99195,-0.60772 -3.47748,-1.82315 -1.45176,-1.24919 -2.26205,-3.07233 -0.81028,-1.82315 -0.81028,-4.25401 0,-2.63343 1.01285,-4.55786 1.04662,-1.95819 3.07234,-3.20738 2.05948,-1.28296 5.09805,-1.89067 3.03858,-0.60772 7.05625,-0.60772 h 2.93729 v -1.82314 q 0,-1.418 -0.30386,-2.46462 -0.2701,-1.08038 -0.94534,-1.78939 -0.64147,-0.709 -1.75562,-1.04662 -1.08038,-0.33761 -2.70095,-0.33761 -2.127,0 -3.8151,0.47266 -1.65434,0.47267 -2.93729,1.04662 -1.28295,0.57396 -2.16076,1.04662 -0.84405,0.47267 -1.38424,0.47267 -0.37138,0 -0.67524,-0.23633 -0.2701,-0.23634 -0.47267,-0.67524 -0.16881,-0.43891 -0.27009,-1.08038 -0.10129,-0.64148 -0.10129,-1.41801 0,-1.04662 0.16881,-1.65433 0.16881,-0.60772 0.64148,-1.08038 0.47266,-0.50643 1.65433,-1.08039 1.18167,-0.60771 2.76848,-1.11414 1.58681,-0.50643 3.44372,-0.81029 1.89067,-0.33761 3.88262,-0.33761 3.545,0 6.04339,0.709 2.53214,0.67523 4.15272,2.127 1.62057,1.418 2.36333,3.68005 0.74276,2.26205 0.74276,5.36815 z m -8.33919,-12.89706 h -3.24115 q -2.05948,0 -3.51124,0.30386 -1.45177,0.30385 -2.36334,0.91157 -0.91157,0.60771 -1.35047,1.48552 -0.40515,0.84405 -0.40515,1.9582 0,1.89067 1.18167,2.97105 1.21543,1.08038 3.34243,1.08038 1.78938,0 3.27491,-0.91157 1.51929,-0.91158 3.07234,-2.6672 z" />
      <path
         id="path949"
         style="font-style:normal;font-variant:normal;font-weight:bold;font-stretch:normal;font-size:69.14444733px;font-family:Calibri;-inkscape-font-specification:'Calibri Bold';fill:url(#linearGradient848);fill-opacity:1;stroke-width:0.26458332"
         d="m 318.67469,247.48118 q 0,0.33762 -0.20258,0.60772 -0.20257,0.23633 -0.709,0.40514 -0.47266,0.16881 -1.28295,0.23634 -0.81029,0.10128 -2.05948,0.10128 -1.24919,0 -2.05948,-0.10128 -0.81028,-0.0675 -1.31671,-0.23634 -0.47267,-0.16881 -0.67524,-0.40514 -0.20257,-0.2701 -0.20257,-0.60772 v -44.39694 q 0,-0.33762 0.20257,-0.60772 0.20257,-0.27009 0.67524,-0.4389 0.50643,-0.20258 1.31671,-0.30386 0.81029,-0.10129 2.05948,-0.10129 1.24919,0 2.05948,0.10129 0.81029,0.10128 1.28295,0.30386 0.50643,0.16881 0.709,0.4389 0.20258,0.2701 0.20258,0.60772 z" />
      <path
         id="path951"
         style="font-style:normal;font-variant:normal;font-weight:bold;font-stretch:normal;font-size:69.14444733px;font-family:Calibri;-inkscape-font-specification:'Calibri Bold';fill:url(#linearGradient850);fill-opacity:1;stroke-width:0.26458332"
         d="m 335.69071,247.48118 q 0,0.33762 -0.20257,0.60772 -0.20258,0.23633 -0.709,0.40514 -0.47267,0.16881 -1.28296,0.23634 -0.81028,0.10128 -2.05948,0.10128 -1.24919,0 -2.05947,-0.10128 -0.81029,-0.0675 -1.31672,-0.23634 -0.47267,-0.16881 -0.67524,-0.40514 -0.20257,-0.2701 -0.20257,-0.60772 v -44.39694 q 0,-0.33762 0.20257,-0.60772 0.20257,-0.27009 0.67524,-0.4389 0.50643,-0.20258 1.31672,-0.30386 0.81028,-0.10129 2.05947,-0.10129 1.2492,0 2.05948,0.10129 0.81029,0.10128 1.28296,0.30386 0.50642,0.16881 0.709,0.4389 0.20257,0.2701 0.20257,0.60772 z" />
    </g>
  </g>
</svg>
