<?xml version="1.0" encoding="UTF-8" standalone="no"?>
<svg
   xmlns:dc="http://purl.org/dc/elements/1.1/"
   xmlns:cc="http://creativecommons.org/ns#"
   xmlns:rdf="http://www.w3.org/1999/02/22-rdf-syntax-ns#"
   xmlns:svg="http://www.w3.org/2000/svg"
   xmlns="http://www.w3.org/2000/svg"
   xmlns:xlink="http://www.w3.org/1999/xlink"
   id="svg8"
   version="1.1"
   viewBox="0 0 315.83444 103.0879"
   height="103.08791mm"
   width="315.83444mm">
  <defs
     id="defs2">
    <linearGradient
       id="linearGradient823">
      <stop
         id="stop819"
         offset="0"
         style="stop-color:#ff2c00;stop-opacity:1" />
      <stop
         id="stop821"
         offset="1"
         style="stop-color:#ff9e00;stop-opacity:1" />
    </linearGradient>
    <linearGradient
       gradientTransform="translate(-44.223214,15.875)"
       gradientUnits="userSpaceOnUse"
       y2="174.3609"
       x2="380.32553"
       y1="177.00673"
       x1="53.786007"
       id="linearGradient825"
       xlink:href="#linearGradient823" />
    <linearGradient
       gradientTransform="matrix(1.425509,0,0,1.4255091,64.221944,-32.948957)"
       gradientUnits="userSpaceOnUse"
       y2="82.280746"
       x2="225.03535"
       y1="98.075653"
       x1="169.29544"
       id="linearGradient839"
       xlink:href="#linearGradient823" />
    <linearGradient
       y2="174.3609"
       x2="380.32553"
       y1="217.09715"
       x1="331.21179"
       gradientTransform="translate(-44.223214,15.875)"
       gradientUnits="userSpaceOnUse"
       id="linearGradient842"
       xlink:href="#linearGradient823" />
    <linearGradient
       gradientUnits="userSpaceOnUse"
       y2="191.28661"
       x2="243.75293"
       y1="191.28661"
       x1="11.853906"
       id="linearGradient877"
       xlink:href="#linearGradient823" />
    <linearGradient
       y2="191.28661"
       x2="243.75293"
       y1="191.28661"
       x1="11.853906"
       gradientUnits="userSpaceOnUse"
       id="linearGradient879"
       xlink:href="#linearGradient823" />
    <linearGradient
       y2="191.28661"
       x2="243.75293"
       y1="191.28661"
       x1="11.853906"
       gradientUnits="userSpaceOnUse"
       id="linearGradient881"
       xlink:href="#linearGradient823" />
    <linearGradient
       y2="191.28661"
       x2="243.75293"
       y1="191.28661"
       x1="11.853906"
       gradientUnits="userSpaceOnUse"
       id="linearGradient883"
       xlink:href="#linearGradient823" />
    <linearGradient
       y2="191.28661"
       x2="243.75293"
       y1="191.28661"
       x1="11.853906"
       gradientUnits="userSpaceOnUse"
       id="linearGradient885"
       xlink:href="#linearGradient823" />
    <linearGradient
       y2="191.28661"
       x2="243.75293"
       y1="191.28661"
       x1="11.853906"
       gradientUnits="userSpaceOnUse"
       id="linearGradient887"
       xlink:href="#linearGradient823" />
    <linearGradient
       y2="191.28661"
       x2="243.75293"
       y1="191.28661"
       x1="11.853906"
       gradientUnits="userSpaceOnUse"
       id="linearGradient889"
       xlink:href="#linearGradient823" />
    <linearGradient
       y2="191.28661"
       x2="243.75293"
       y1="191.28661"
       x1="11.853906"
       gradientUnits="userSpaceOnUse"
       id="linearGradient891"
       xlink:href="#linearGradient823" />
    <linearGradient
       y2="191.28661"
       x2="243.75293"
       y1="191.28661"
       x1="11.853906"
       gradientUnits="userSpaceOnUse"
       id="linearGradient893"
       xlink:href="#linearGradient823" />
    <linearGradient
       y2="191.28661"
       x2="243.75293"
       y1="191.28661"
       x1="11.853906"
       gradientUnits="userSpaceOnUse"
       id="linearGradient895"
       xlink:href="#linearGradient823" />
    <linearGradient
       y2="191.28661"
       x2="243.75293"
       y1="191.28661"
       x1="11.853906"
       gradientUnits="userSpaceOnUse"
       id="linearGradient897"
       xlink:href="#linearGradient823" />
  </defs>
  <metadata
     id="metadata5">
    <rdf:RDF>
      <cc:Work
         rdf:about="">
        <dc:format>image/svg+xml</dc:format>
        <dc:type
           rdf:resource="http://purl.org/dc/dcmitype/StillImage" />
        <dc:title></dc:title>
      </cc:Work>
    </rdf:RDF>
  </metadata>
  <g
     transform="translate(18.886234,-149.4181)"
     id="layer1">
    <g
       transform="translate(11.49259,8.8576732)"
       id="text817"
       style="font-style:normal;font-variant:normal;font-weight:bold;font-stretch:normal;font-size:50.79999924px;line-height:1.25;font-family:Cambria;-inkscape-font-specification:'Cambria Bold';letter-spacing:0px;word-spacing:0px;fill:url(#linearGradient825);fill-opacity:1;stroke:none;stroke-width:0.26458332"
       aria-label="Bl🔥zor">
      <g
         id="text4591"
         style="font-style:normal;font-variant:normal;font-weight:bold;font-stretch:normal;font-size:50.79999924px;line-height:1.25;font-family:Cambria;-inkscape-font-specification:'Cambria Bold';letter-spacing:0px;word-spacing:0px;fill:url(#linearGradient877);fill-opacity:1;stroke:none;stroke-width:0.07000434"
         aria-label="Bl🔥zorball">
        <path
           id="path850"
           style="font-style:normal;font-variant:normal;font-weight:bold;font-stretch:normal;font-family:Calibri;-inkscape-font-specification:'Calibri Bold';fill:url(#linearGradient879);fill-opacity:1;stroke-width:0.07000434"
           d="m 35.095898,199.49695 q 0,1.71152 -0.471289,3.10059 -0.471289,1.38906 -1.314648,2.45566 -0.818555,1.0666 -1.984375,1.83555 -1.141016,0.76894 -2.530078,1.26504 -1.389063,0.49609 -2.976563,0.74414 -1.562695,0.22324 -3.497461,0.22324 h -8.532812 q -0.818555,0 -1.389063,-0.47129 -0.545703,-0.49609 -0.545703,-1.5875 v -27.97969 q 0,-1.0914 0.545703,-1.56269 0.570508,-0.4961 1.389063,-0.4961 h 8.061523 q 2.951758,0 4.985742,0.4961 2.058789,0.49609 3.447852,1.51308 1.413867,0.99219 2.158008,2.53008 0.74414,1.53789 0.74414,3.62149 0,1.16582 -0.297656,2.20761 -0.297656,1.017 -0.868164,1.86036 -0.570508,0.84336 -1.413867,1.48828 -0.818555,0.64492 -1.885157,1.04179 1.364258,0.24805 2.505274,0.86817 1.16582,0.62011 2.00918,1.6123 0.868164,0.96739 1.364257,2.28203 0.496094,1.31465 0.496094,2.95176 z M 26.662304,185.9784 q 0,-0.96739 -0.297656,-1.73633 -0.297656,-0.76895 -0.892969,-1.26504 -0.595312,-0.5209 -1.513085,-0.79375 -0.892969,-0.27285 -2.406055,-0.27285 h -3.299024 v 8.33437 h 3.646289 q 1.413868,0 2.257227,-0.32246 0.843359,-0.34726 1.389062,-0.91777 0.570508,-0.59531 0.84336,-1.36426 0.272851,-0.79375 0.272851,-1.66191 z m 1.661914,13.74179 q 0,-1.11621 -0.37207,-1.98437 -0.37207,-0.89297 -1.091406,-1.48828 -0.719336,-0.59532 -1.835547,-0.91778 -1.116211,-0.32246 -2.902148,-0.32246 h -3.869532 v 9.12813 h 4.712891 q 1.364258,0 2.282031,-0.27285 0.942578,-0.29766 1.612305,-0.84336 0.694531,-0.57051 1.066601,-1.38907 0.396875,-0.84335 0.396875,-1.90996 z" />
        <path
           id="path852"
           style="font-style:normal;font-variant:normal;font-weight:bold;font-stretch:normal;font-family:Calibri;-inkscape-font-specification:'Calibri Bold';fill:url(#linearGradient881);fill-opacity:1;stroke-width:0.07000434"
           d="m 46.208398,208.27781 q 0,0.24805 -0.148829,0.44649 -0.148828,0.17363 -0.520898,0.29765 -0.347266,0.12402 -0.942578,0.17363 -0.595313,0.0744 -1.513086,0.0744 -0.917773,0 -1.513086,-0.0744 -0.595312,-0.0496 -0.967383,-0.17363 -0.347265,-0.12402 -0.496093,-0.29765 -0.148829,-0.19844 -0.148829,-0.44649 v -32.61816 q 0,-0.24805 0.148829,-0.44649 0.148828,-0.19843 0.496093,-0.32246 0.372071,-0.14883 0.967383,-0.22324 0.595313,-0.0744 1.513086,-0.0744 0.917773,0 1.513086,0.0744 0.595312,0.0744 0.942578,0.22324 0.37207,0.12403 0.520898,0.32246 0.148829,0.19844 0.148829,0.44649 z" />
        <path
           id="path854"
           style="font-style:normal;font-variant:normal;font-weight:bold;font-stretch:normal;font-family:Calibri;-inkscape-font-specification:'Calibri Bold';fill:url(#linearGradient883);fill-opacity:1;stroke-width:0.07000434"
           d="m 98.471871,182.38172 v 16.04863 q 0,2.95176 -0.768945,5.68027 -0.768945,2.72852 -2.158008,5.10977 -1.389062,2.38125 -3.348633,4.31601 -1.95957,1.95957 -4.34082,3.34864 -2.38125,1.38906 -5.109765,2.158 -2.728516,0.76895 -5.680274,0.76895 -2.951758,0 -5.680273,-0.76895 -2.728516,-0.76894 -5.109766,-2.158 -2.38125,-1.38907 -4.34082,-3.34864 -1.934766,-1.93476 -3.323828,-4.31601 -1.389062,-2.38125 -2.158008,-5.10977 -0.768945,-2.72851 -0.768945,-5.68027 0,-2.48047 0.496094,-4.91133 0.496093,-2.45566 1.438672,-4.73769 0.967382,-2.28203 2.33164,-4.34082 1.389063,-2.0836 3.150195,-3.84473 h -2.058789 v -7.14375 q 0,-1.0418 0.297657,-2.05879 0.322461,-1.01699 0.892968,-1.88516 0.570508,-0.86816 1.364258,-1.53789 0.79375,-0.69453 1.785938,-1.0914 0.917773,-0.37207 1.736328,-0.44649 0.843359,-0.0992 1.711523,-0.0992 h 1.116211 v -3.57187 h 2.158008 q 1.265039,0 2.505273,0.0744 1.240235,0.0496 2.480469,0.29766 2.604492,0.49609 4.886523,1.76113 2.306836,1.26504 4.117578,3.10059 1.835547,1.81074 3.100586,4.11758 1.265039,2.30683 1.785938,4.88652 0.248047,1.16582 0.297656,2.35645 0.04961,1.16582 0.04961,2.35644 v 1.19063 q 1.413867,-0.32247 2.80293,-0.42168 1.389062,-0.0992 2.80293,-0.0992 z m -3.571875,16.27187 v -12.7248 q -2.158008,0 -3.894336,0.96738 -1.736328,0.94258 -3.150195,2.50527 l -0.07441,0.0992 v -8.90488 q 0,-0.79375 -0.09922,-1.5875 -0.09922,-0.79375 -0.272851,-1.5875 -0.520899,-2.43086 -1.835547,-4.46484 -1.314649,-2.03399 -3.175,-3.49746 -1.860352,-1.48829 -4.142383,-2.30684 -2.282031,-0.81856 -4.737695,-0.81856 v 0.24805 q 0,1.98438 -0.42168,4.04317 -0.421679,2.03398 -1.240234,3.96875 -0.79375,1.93476 -1.934766,3.69589 -1.141015,1.73633 -2.554882,3.12539 -0.570508,0.57051 -1.165821,1.11622 -0.570508,0.52089 -1.116211,1.11621 -1.314648,1.48828 -2.406054,3.175 -1.066602,1.68672 -1.835547,3.54707 -0.768945,1.83554 -1.190625,3.79511 -0.396875,1.93477 -0.396875,3.94395 0,4.44004 1.785937,8.18555 1.785938,3.7207 5.333008,6.3996 v -5.35781 q 0,-1.51308 0.396875,-2.60449 0.396875,-1.09141 0.992188,-1.95957 0.595312,-0.89297 1.289843,-1.66191 0.694532,-0.79375 1.289844,-1.66192 0.595312,-0.89297 0.992187,-1.98437 0.396875,-1.09141 0.396875,-2.6045 2.207618,0 4.142383,0.84336 1.959571,0.84336 3.398242,2.30684 1.463477,1.43867 2.306836,3.39824 0.84336,1.93477 0.84336,4.14239 1.141015,-0.91778 2.530078,-1.33946 1.389062,-0.44648 2.827734,-0.44648 v 8.92968 q 1.637109,-1.21542 2.951758,-2.80292 1.314648,-1.5627 2.232422,-3.37344 0.942578,-1.83555 1.438672,-3.81992 0.496093,-1.98438 0.496093,-4.04317 z m -17.83457,8.68164 q -1.116211,0 -2.083593,0.42168 -0.967383,0.42168 -1.686719,1.16582 -0.719336,0.71934 -1.141016,1.68672 -0.42168,0.96738 -0.42168,2.08359 v 2.72852 q 2.604493,0.81856 5.357813,0.81856 2.75332,0 5.333008,-0.81856 v -4.51445 l -5.357813,1.78593 z m -12.476757,-33.8832 v 3.57187 q 0.74414,0 1.389062,-0.27285 0.644922,-0.29765 1.116211,-0.76894 0.496094,-0.4961 0.768945,-1.14102 0.297657,-0.64492 0.297657,-1.38906 v -3.54707 h -0.372071 q -0.644922,0 -1.240234,0.32246 -0.570508,0.32246 -1.016992,0.84336 -0.42168,0.49609 -0.694532,1.14102 -0.248046,0.62011 -0.248046,1.24023 z" />
        <path
           id="path856"
           style="font-style:normal;font-variant:normal;font-weight:bold;font-stretch:normal;font-family:Calibri;-inkscape-font-specification:'Calibri Bold';fill:url(#linearGradient885);fill-opacity:1;stroke-width:0.07000434"
           d="m 123.40058,206.56629 q 0,0.71933 -0.0744,1.24023 -0.0744,0.4961 -0.19844,0.79375 -0.12402,0.29766 -0.32246,0.42168 -0.19844,0.0992 -0.44649,0.0992 h -14.46113 q -0.66972,0 -1.0418,-0.44648 -0.34726,-0.44649 -0.34726,-1.46348 v -1.14102 q 0,-0.44648 0.0248,-0.79375 0.0496,-0.37207 0.14883,-0.69453 0.12403,-0.34726 0.29766,-0.69453 0.19844,-0.34726 0.49609,-0.76894 l 8.28477,-12.79922 h -7.83828 q -0.47129,0 -0.76895,-0.59532 -0.27285,-0.59531 -0.27285,-1.90996 0,-0.71933 0.0496,-1.19062 0.0744,-0.49609 0.19844,-0.76895 0.12402,-0.29765 0.32246,-0.42168 0.19843,-0.12402 0.47129,-0.12402 h 13.51855 q 0.34727,0 0.59531,0.0744 0.24805,0.0744 0.39688,0.27286 0.17363,0.19843 0.24805,0.5457 0.0992,0.34726 0.0992,0.86816 v 1.21543 q 0,0.4961 -0.0496,0.89297 -0.0496,0.37207 -0.14882,0.71934 -0.0992,0.34726 -0.29766,0.69453 -0.17363,0.34726 -0.42168,0.74414 l -8.23516,12.77441 h 8.73125 q 0.22325,0 0.42168,0.0992 0.19844,0.0992 0.32246,0.37207 0.14883,0.27285 0.22325,0.76895 0.0744,0.47129 0.0744,1.21543 z" />
        <path
           id="path858"
           style="font-style:normal;font-variant:normal;font-weight:bold;font-stretch:normal;font-family:Calibri;-inkscape-font-specification:'Calibri Bold';fill:url(#linearGradient887);fill-opacity:1;stroke-width:0.07000434"
           d="m 149.64394,196.99168 q 0,2.82773 -0.74414,5.15937 -0.74414,2.33164 -2.25723,4.01836 -1.51308,1.68672 -3.79511,2.60449 -2.28204,0.91778 -5.33301,0.91778 -2.95176,0 -5.13457,-0.81856 -2.18281,-0.81855 -3.62149,-2.38125 -1.43867,-1.56269 -2.1332,-3.84472 -0.69453,-2.28203 -0.69453,-5.20899 0,-2.82773 0.74414,-5.15937 0.76895,-2.35645 2.28203,-4.01836 1.51309,-1.68672 3.77031,-2.60449 2.28203,-0.91778 5.33301,-0.91778 2.97656,0 5.15938,0.81856 2.18281,0.79375 3.59668,2.35644 1.43867,1.5627 2.1332,3.84473 0.69453,2.28203 0.69453,5.23379 z m -6.42441,0.24804 q 0,-1.6371 -0.27286,-3.00136 -0.24804,-1.38906 -0.86816,-2.40606 -0.62012,-1.01699 -1.66191,-1.5875 -1.017,-0.5705 -2.57969,-0.5705 -1.38906,0 -2.43086,0.52089 -1.0418,0.4961 -1.71152,1.48828 -0.66973,0.96739 -1.017,2.35645 -0.32246,1.36426 -0.32246,3.12539 0,1.63711 0.27285,3.02617 0.27286,1.36426 0.86817,2.38125 0.62012,1.01699 1.66191,1.5875 1.0418,0.54571 2.57969,0.54571 1.41387,0 2.45566,-0.4961 1.0418,-0.5209 1.71153,-1.48828 0.66972,-0.96738 0.99219,-2.33164 0.32246,-1.38906 0.32246,-3.1502 z" />
        <path
           id="path860"
           style="font-style:normal;font-variant:normal;font-weight:bold;font-stretch:normal;font-family:Calibri;-inkscape-font-specification:'Calibri Bold';fill:url(#linearGradient889);fill-opacity:1;stroke-width:0.07000434"
           d="m 168.76836,188.21082 q 0,0.89297 -0.0496,1.46348 -0.0496,0.5705 -0.14883,0.89296 -0.0992,0.32247 -0.27285,0.44649 -0.14883,0.12402 -0.39687,0.12402 -0.19844,0 -0.44649,-0.0744 -0.24804,-0.0992 -0.5705,-0.19844 -0.29766,-0.0992 -0.66973,-0.17363 -0.37207,-0.0992 -0.81856,-0.0992 -0.52089,0 -1.04179,0.22324 -0.5209,0.19844 -1.09141,0.64492 -0.5457,0.44649 -1.16582,1.19063 -0.59531,0.74414 -1.28984,1.83554 v 13.79141 q 0,0.24805 -0.14883,0.44649 -0.14883,0.17363 -0.5209,0.29765 -0.34726,0.12402 -0.94258,0.17363 -0.59531,0.0744 -1.51308,0.0744 -0.91778,0 -1.51309,-0.0744 -0.59531,-0.0496 -0.96738,-0.17363 -0.34727,-0.12402 -0.4961,-0.29765 -0.14882,-0.19844 -0.14882,-0.44649 v -22.12578 q 0,-0.24805 0.12402,-0.42168 0.12402,-0.19844 0.44648,-0.32246 0.32247,-0.12402 0.81856,-0.17363 0.5209,-0.0744 1.28984,-0.0744 0.79375,0 1.31465,0.0744 0.5209,0.0496 0.79375,0.17363 0.29766,0.12402 0.42168,0.32246 0.12402,0.17363 0.12402,0.42168 v 2.75332 q 0.86817,-1.24023 1.63711,-2.03398 0.76895,-0.81856 1.46348,-1.28985 0.69453,-0.47129 1.38906,-0.64492 0.69453,-0.19844 1.38907,-0.19844 0.32246,0 0.69453,0.0496 0.37207,0.0248 0.76894,0.12403 0.39688,0.0744 0.69453,0.19843 0.29766,0.0992 0.42168,0.22325 0.14883,0.12402 0.19844,0.27285 0.0744,0.14882 0.12402,0.42168 0.0496,0.24804 0.0744,0.76894 0.0248,0.5209 0.0248,1.41387 z" />
        <path
           id="path862"
           style="font-style:normal;font-variant:normal;font-weight:bold;font-stretch:normal;font-family:Calibri;-inkscape-font-specification:'Calibri Bold';fill:url(#linearGradient891);fill-opacity:1;stroke-width:0.07000434"
           d="m 194.88769,196.91726 q 0,2.95176 -0.64493,5.30821 -0.64492,2.35644 -1.86035,4.01836 -1.21543,1.66191 -3.00136,2.55488 -1.76114,0.89297 -4.01836,0.89297 -1.11622,0 -2.0836,-0.22324 -0.96738,-0.19844 -1.86035,-0.66973 -0.86816,-0.47129 -1.73633,-1.19063 -0.84336,-0.71933 -1.73633,-1.73632 v 2.40605 q 0,0.27285 -0.14882,0.47129 -0.12403,0.17363 -0.44649,0.29766 -0.29765,0.12402 -0.81855,0.17363 -0.5209,0.0496 -1.26504,0.0496 -0.76895,0 -1.28985,-0.0496 -0.49609,-0.0496 -0.81855,-0.17363 -0.29766,-0.12403 -0.42168,-0.29766 -0.12402,-0.19844 -0.12402,-0.47129 v -32.61816 q 0,-0.24805 0.14882,-0.44649 0.14883,-0.19843 0.4961,-0.32246 0.37207,-0.14883 0.96738,-0.22324 0.59531,-0.0744 1.51309,-0.0744 0.91777,0 1.51308,0.0744 0.59532,0.0744 0.94258,0.22324 0.37207,0.12403 0.5209,0.32246 0.14883,0.19844 0.14883,0.44649 v 12.22871 q 0.84336,-0.84336 1.68672,-1.43867 0.84336,-0.59532 1.68672,-0.96739 0.84335,-0.39687 1.73632,-0.5705 0.89297,-0.17364 1.88516,-0.17364 2.45566,0 4.16719,0.99219 1.71152,0.96738 2.77812,2.6293 1.09141,1.66191 1.5875,3.89433 0.4961,2.20762 0.4961,4.66328 z m -6.47403,0.44649 q 0,-1.41387 -0.22324,-2.72852 -0.19844,-1.31465 -0.71934,-2.33164 -0.52089,-1.01699 -1.36425,-1.6123 -0.81856,-0.62012 -2.0836,-0.62012 -0.62011,0 -1.21543,0.17363 -0.59531,0.17364 -1.24023,0.59532 -0.62012,0.42168 -1.28984,1.0914 -0.66973,0.66973 -1.41387,1.66192 v 7.34218 q 1.31465,1.68672 2.50527,2.57969 1.21543,0.86816 2.53008,0.86816 1.21543,0 2.05879,-0.62011 0.84336,-0.62012 1.38906,-1.61231 0.57051,-0.99218 0.81856,-2.25722 0.24804,-1.26504 0.24804,-2.53008 z" />
        <path
           id="path864"
           style="font-style:normal;font-variant:normal;font-weight:bold;font-stretch:normal;font-family:Calibri;-inkscape-font-specification:'Calibri Bold';fill:url(#linearGradient893);fill-opacity:1;stroke-width:0.07000434"
           d="m 218.7498,208.35222 q 0,0.34727 -0.24805,0.54571 -0.24805,0.19844 -0.79375,0.27285 -0.5209,0.0992 -1.5627,0.0992 -1.11621,0 -1.63711,-0.0992 -0.49609,-0.0744 -0.71933,-0.27285 -0.19844,-0.19844 -0.19844,-0.54571 v -1.76113 q -1.36426,1.46348 -3.12539,2.28203 -1.73633,0.81856 -3.86953,0.81856 -1.76113,0 -3.24942,-0.47129 -1.46347,-0.44649 -2.55488,-1.33945 -1.0666,-0.91778 -1.66191,-2.25723 -0.59531,-1.33945 -0.59531,-3.12539 0,-1.93477 0.74414,-3.34863 0.76894,-1.43868 2.25722,-2.35645 1.51309,-0.94258 3.74551,-1.38906 2.23242,-0.44649 5.18418,-0.44649 h 2.15801 v -1.33945 q 0,-1.0418 -0.22324,-1.81074 -0.19844,-0.79375 -0.69454,-1.31465 -0.47128,-0.5209 -1.28984,-0.76895 -0.79375,-0.24804 -1.98437,-0.24804 -1.5627,0 -2.80293,0.34726 -1.21543,0.34727 -2.15801,0.76895 -0.94258,0.42168 -1.5875,0.76894 -0.62012,0.34727 -1.01699,0.34727 -0.27286,0 -0.4961,-0.17363 -0.19844,-0.17364 -0.34726,-0.4961 -0.12403,-0.32246 -0.19844,-0.79375 -0.0744,-0.47129 -0.0744,-1.04179 0,-0.76895 0.12403,-1.21543 0.12402,-0.44649 0.47129,-0.79375 0.34726,-0.37207 1.21543,-0.79375 0.86816,-0.44649 2.03398,-0.81856 1.16582,-0.37207 2.53008,-0.59531 1.38906,-0.24805 2.85254,-0.24805 2.60449,0 4.44004,0.5209 1.86035,0.49609 3.05097,1.5627 1.19063,1.04179 1.73633,2.70371 0.54571,1.66191 0.54571,3.94394 z m -6.12676,-9.47539 h -2.38125 q -1.51309,0 -2.57969,0.22325 -1.0666,0.22324 -1.73633,0.66972 -0.66972,0.44649 -0.99219,1.09141 -0.29765,0.62012 -0.29765,1.43867 0,1.38906 0.86816,2.18281 0.89297,0.79375 2.45567,0.79375 1.31464,0 2.40605,-0.66972 1.11621,-0.66973 2.25723,-1.95957 z" />
        <path
           id="path866"
           style="font-style:normal;font-variant:normal;font-weight:bold;font-stretch:normal;font-family:Calibri;-inkscape-font-specification:'Calibri Bold';fill:url(#linearGradient895);fill-opacity:1;stroke-width:0.07000434"
           d="m 231.25135,208.27781 q 0,0.24805 -0.14882,0.44649 -0.14883,0.17363 -0.5209,0.29765 -0.34727,0.12402 -0.94258,0.17363 -0.59531,0.0744 -1.51309,0.0744 -0.91777,0 -1.51308,-0.0744 -0.59531,-0.0496 -0.96738,-0.17363 -0.34727,-0.12402 -0.4961,-0.29765 -0.14883,-0.19844 -0.14883,-0.44649 v -32.61816 q 0,-0.24805 0.14883,-0.44649 0.14883,-0.19843 0.4961,-0.32246 0.37207,-0.14883 0.96738,-0.22324 0.59531,-0.0744 1.51308,-0.0744 0.91778,0 1.51309,0.0744 0.59531,0.0744 0.94258,0.22324 0.37207,0.12403 0.5209,0.32246 0.14882,0.19844 0.14882,0.44649 z" />
        <path
           id="path868"
           style="font-style:normal;font-variant:normal;font-weight:bold;font-stretch:normal;font-family:Calibri;-inkscape-font-specification:'Calibri Bold';fill:url(#linearGradient897);fill-opacity:1;stroke-width:0.07000434"
           d="m 243.75293,208.27781 q 0,0.24805 -0.14883,0.44649 -0.14883,0.17363 -0.5209,0.29765 -0.34727,0.12402 -0.94258,0.17363 -0.59531,0.0744 -1.51308,0.0744 -0.91778,0 -1.51309,-0.0744 -0.59531,-0.0496 -0.96738,-0.17363 -0.34727,-0.12402 -0.4961,-0.29765 -0.14882,-0.19844 -0.14882,-0.44649 v -32.61816 q 0,-0.24805 0.14882,-0.44649 0.14883,-0.19843 0.4961,-0.32246 0.37207,-0.14883 0.96738,-0.22324 0.59531,-0.0744 1.51309,-0.0744 0.91777,0 1.51308,0.0744 0.59531,0.0744 0.94258,0.22324 0.37207,0.12403 0.5209,0.32246 0.14883,0.19844 0.14883,0.44649 z" />
      </g>
    </g>
    <rect
       ry="0.13532691"
       y="224.72069"
       x="24.391106"
       height="0.27065381"
       width="32.879803"
       id="rect915"
       style="opacity:1;fill:none;fill-opacity:1;stroke:#ffa000;stroke-width:4.99157047;stroke-miterlimit:4;stroke-dasharray:none;stroke-opacity:1" />
    <rect
       ry="0.034849733"
       y="224.83752"
       x="118.26063"
       height="0.069699466"
       width="137.02437"
       id="rect915-7"
       style="opacity:1;fill:none;fill-opacity:1;stroke:#ffa000;stroke-width:5.17105484;stroke-miterlimit:4;stroke-dasharray:none;stroke-opacity:1" />
    <rect
       ry="0.13052715"
       y="151.97528"
       x="-16.518198"
       height="97.895416"
       width="311.17651"
       id="rect866"
       style="opacity:1;fill:none;fill-opacity:1;stroke:#ffa000;stroke-width:4.92522097;stroke-miterlimit:4;stroke-dasharray:none;stroke-opacity:1" />
  </g>
</svg>
