<svg xmlns="http://www.w3.org/2000/svg" xmlns:xlink="http://www.w3.org/1999/xlink" viewBox="0 0 343.749 122.292" height="462.206" width="1299.209"><defs><linearGradient id="A" gradientUnits="userSpaceOnUse"><stop offset="0" stop-color="#ff2c00"/><stop offset="1" stop-color="#ff9e00"/></linearGradient><linearGradient y2="185.159" x2="308.429" y1="187.509" x1="18.467" id="B" xlink:href="#A"/><linearGradient y2="190.236" x2="336.102" y1="192.882" x1="9.563" id="C" xlink:href="#A"/><linearGradient y2="228.422" x2="333.341" y1="229.177" x1="3.399" id="D" xlink:href="#A"/><linearGradient y2="228.422" x2="316.326" y1="229.177" x1="-13.616" id="E" xlink:href="#A"/><path id="F" d="M318.675 247.48q0 .338-.203.608-.203.236-.71.405-.473.17-1.283.236-.8.1-2.06.1-1.25 0-2.06-.1-.8-.067-1.317-.236-.473-.17-.675-.405-.203-.27-.203-.608v-44.397q0-.338.203-.608.203-.27.675-.44.506-.203 1.317-.304.8-.1 2.06-.1 1.25 0 2.06.1.8.1 1.283.304.506.17.71.44.203.27.203.608z"/></defs><g transform="translate(-1.942 -137.113)"><path d="M43.577 197.344q0 2.33-.64 4.22-.64 1.89-1.79 3.342-1.114 1.452-2.7 2.498-1.553 1.047-3.444 1.722-1.89.675-4.05 1.013-2.127.304-4.76.304H14.575q-1.114 0-1.89-.64-.743-.675-.743-2.16v-38.083q0-1.486.743-2.127.777-.675 1.89-.675h10.973q4.018 0 6.786.675 2.802.675 4.693 2.06 1.924 1.35 2.937 3.444 1.013 2.093 1.013 4.93 0 1.587-.405 3.005-.405 1.384-1.182 2.532-.777 1.148-1.924 2.026-1.114.878-2.566 1.418 1.857.338 3.4 1.182 1.587.844 2.735 2.195 1.182 1.317 1.857 3.106.675 1.79.675 4.018zm-11.48-18.4q0-1.317-.405-2.363-.405-1.047-1.215-1.722-.8-.71-2.06-1.08-1.215-.37-3.275-.37h-4.5v11.344h4.963q1.924 0 3.072-.44 1.148-.473 1.89-1.25.777-.8 1.148-1.857.37-1.08.37-2.262zm2.262 18.704q0-1.52-.506-2.7-.506-1.215-1.486-2.026-.98-.8-2.498-1.25-1.52-.44-3.95-.44h-5.267v12.424h6.415q1.857 0 3.106-.37 1.283-.405 2.195-1.148.945-.777 1.452-1.89.54-1.148.54-2.6z" fill="url(#C)"/><path d="M58.702 209.296q0 .338-.203.608-.203.236-.71.405-.473.17-1.283.236-.8.1-2.06.1-1.25 0-2.06-.1-.8-.067-1.317-.236-.473-.17-.675-.405-.203-.27-.203-.608V164.9q0-.338.203-.608.203-.27.675-.44.506-.203 1.317-.304.8-.1 2.06-.1 1.25 0 2.06.1.8.1 1.283.304.506.17.71.44.203.27.203.608z" fill="url(#C)"/><path d="M106.483 181.008v13.26q0 2.44-.635 4.694-.635 2.255-1.783 4.222-1.148 1.968-2.767 3.566-1.62 1.62-3.587 2.767-1.968 1.148-4.222 1.783-2.255.635-4.694.635-2.44 0-4.694-.635-2.255-.635-4.222-1.783-1.968-1.148-3.587-2.767-1.6-1.6-2.747-3.566-1.148-1.968-1.783-4.222-.635-2.255-.635-4.694 0-2.05.4-4.058.4-2.03 1.19-3.915.8-1.886 1.927-3.587 1.148-1.722 2.603-3.177h-1.7v-5.903q0-.86.246-1.7.266-.84.738-1.558.47-.717 1.127-1.27.656-.574 1.476-.902.758-.307 1.435-.37.697-.082 1.414-.082h.922v-2.952h1.783q1.045 0 2.07.06 1.025.04 2.05.246 2.152.4 4.038 1.455 1.906 1.045 3.402 2.562 1.517 1.496 2.562 3.402 1.045 1.906 1.476 4.038.205.963.246 1.947.04.963.04 1.947v.984q1.168-.266 2.316-.348 1.148-.082 2.316-.082zm-2.952 13.446V183.94q-1.783 0-3.218.8-1.435.78-2.603 2.07l-.06.082v-7.358q0-.656-.082-1.312-.082-.656-.225-1.312-.43-2.01-1.517-3.69-1.086-1.68-2.624-2.9-1.537-1.23-3.423-1.906-1.886-.676-3.915-.676v.205q0 1.64-.348 3.34-.348 1.68-1.025 3.28-.656 1.6-1.6 3.054-.943 1.435-2.11 2.583-.47.47-.963.922-.47.43-.922.922-1.086 1.23-1.988 2.624-.88 1.394-1.517 2.93-.635 1.517-.984 3.136-.328 1.6-.328 3.26 0 3.67 1.476 6.764 1.476 3.074 4.407 5.288v-4.427q0-1.25.328-2.152.328-.902.82-1.62.492-.738 1.066-1.373.574-.656 1.066-1.373.492-.738.82-1.64.328-.902.328-2.152 1.824 0 3.423.697 1.62.697 2.808 1.906 1.21 1.19 1.906 2.808.697 1.6.697 3.423.943-.758 2.09-1.107 1.148-.37 2.337-.37v7.38q1.353-1.004 2.44-2.316 1.086-1.29 1.845-2.788.78-1.517 1.19-3.156.4-1.64.4-3.34zm-14.737 7.174q-.922 0-1.722.348-.8.348-1.394.963-.594.594-.943 1.394-.348.8-.348 1.722v2.255q2.152.676 4.427.676 2.275 0 4.407-.676v-3.73l-4.427 1.476zm-10.3-27.998v2.95q.615 0 1.148-.225.533-.246.922-.635.4-.4.635-.943.246-.533.246-1.148v-2.93h-.307q-.533 0-1.025.266-.47.266-.84.697-.348.4-.574.943-.205.512-.205 1.025z" fill="url(#B)"/><path d="M139.89 206.966q0 .98-.1 1.688-.1.675-.27 1.08-.17.405-.44.574-.27.135-.608.135h-19.683q-.912 0-1.418-.608-.473-.608-.473-1.992v-1.553q0-.608.034-1.08.068-.506.203-.945.17-.473.405-.945.27-.473.675-1.047l11.276-17.42h-10.67q-.64 0-1.047-.8-.37-.8-.37-2.6 0-.98.067-1.62.1-.675.27-1.047.17-.405.44-.574.27-.17.64-.17h18.4q.473 0 .8.1.338.1.54.37.236.27.338.743.135.473.135 1.182v1.654q0 .675-.067 1.215-.067.506-.203.98-.135.473-.405.945-.236.473-.574 1.013l-11.21 17.387h11.884q.304 0 .574.135.27.135.44.506.203.37.304 1.047.1.64.1 1.654z" fill="url(#C)"/><path d="M175.6 193.934q0 3.85-1.013 7.022-1.013 3.174-3.072 5.47-2.06 2.296-5.166 3.545-3.106 1.25-7.26 1.25-4.018 0-6.99-1.114-2.97-1.114-4.93-3.24-1.958-2.127-2.904-5.233-.945-3.106-.945-7.1 0-3.85 1.013-7.022 1.047-3.207 3.106-5.47 2.06-2.296 5.132-3.545 3.106-1.25 7.26-1.25 4.05 0 7.022 1.114 2.97 1.08 4.895 3.207 1.958 2.127 2.904 5.233.945 3.106.945 7.124zm-8.744.338q0-2.228-.37-4.085-.338-1.89-1.182-3.275-.844-1.384-2.262-2.16-1.384-.777-3.51-.777-1.89 0-3.31.71-1.418.675-2.33 2.026-.912 1.317-1.384 3.207-.44 1.857-.44 4.254 0 2.228.37 4.12.37 1.857 1.182 3.24.844 1.384 2.262 2.16 1.418.743 3.51.743 1.924 0 3.342-.675 1.418-.71 2.33-2.026.912-1.317 1.35-3.174.44-1.89.44-4.288z" fill="url(#C)"/><path d="M201.64 181.982q0 1.215-.067 1.992-.067.777-.203 1.215-.135.44-.37.608-.203.17-.54.17-.27 0-.608-.1-.338-.135-.777-.27-.405-.135-.912-.236-.506-.135-1.114-.135-.71 0-1.418.304-.71.27-1.486.878-.743.608-1.587 1.62-.8 1.013-1.756 2.498v18.772q0 .338-.203.608-.203.236-.71.405-.473.17-1.283.236-.8.1-2.06.1-1.25 0-2.06-.1-.8-.067-1.317-.236-.473-.17-.675-.405-.203-.27-.203-.608V179.18q0-.338.17-.574.17-.27.608-.44.44-.17 1.114-.236.71-.1 1.756-.1 1.08 0 1.79.1.71.067 1.08.236.405.17.574.44.17.236.17.574v3.748q1.182-1.688 2.228-2.768 1.047-1.114 1.992-1.756.945-.64 1.89-.878.945-.27 1.89-.27.44 0 .945.067.506.034 1.047.17.54.1.945.27.405.135.574.304.203.17.27.37.1.203.17.574.067.338.1 1.047.034.71.034 1.924z" fill="url(#C)"/><path d="M287.12 96.74V12.453l-17.31 15.25-6.526-6.8L289.25-6.094h7.556l25.966 26.997-6.526 6.8-17.242-15.25V96.74z" transform="matrix(.819182 .527915 -.471747 .916717 0 0)" fill="#ff5b00"/><path d="M269.18 232.018q0 4.018-.878 7.225-.878 3.207-2.532 5.47-1.654 2.262-4.085 3.477-2.397 1.215-5.47 1.215-1.52 0-2.836-.304-1.317-.27-2.532-.912-1.182-.64-2.363-1.62-1.148-.98-2.363-2.363v3.275q0 .37-.203.64-.17.236-.608.405-.405.17-1.114.236-.71.067-1.722.067-1.047 0-1.756-.067-.675-.067-1.114-.236-.405-.17-.574-.405-.17-.27-.17-.64v-44.397q0-.338.203-.608.203-.27.675-.44.506-.203 1.317-.304.8-.1 2.06-.1 1.25 0 2.06.1.8.1 1.283.304.506.17.71.44.203.27.203.608v16.645q1.148-1.148 2.296-1.958 1.148-.8 2.296-1.317 1.148-.54 2.363-.777 1.215-.236 2.566-.236 3.342 0 5.672 1.35 2.33 1.317 3.78 3.58 1.486 2.262 2.16 5.3.675 3.005.675 6.347zm-8.812.608q0-1.924-.304-3.714-.27-1.79-.98-3.174-.71-1.384-1.857-2.195-1.114-.844-2.836-.844-.844 0-1.654.236-.8.236-1.688.8-.844.574-1.756 1.486-.912.912-1.924 2.262v9.994q1.79 2.296 3.4 3.51 1.654 1.182 3.444 1.182 1.654 0 2.802-.844 1.148-.844 1.89-2.195.777-1.35 1.114-3.072.338-1.722.338-3.444z" fill="url(#D)"/><path d="M301.66 247.582q0 .473-.338.743-.338.27-1.08.37-.71.135-2.127.135-1.52 0-2.228-.135-.675-.1-.98-.37-.27-.27-.27-.743v-2.397q-1.857 1.992-4.254 3.106-2.363 1.114-5.267 1.114-2.397 0-4.423-.64-1.992-.608-3.477-1.823-1.452-1.25-2.262-3.072-.8-1.823-.8-4.254 0-2.633 1.013-4.558 1.047-1.958 3.072-3.207 2.06-1.283 5.098-1.89 3.04-.608 7.056-.608h2.937v-1.823q0-1.418-.304-2.465-.27-1.08-.945-1.79-.64-.71-1.756-1.047-1.08-.338-2.7-.338-2.127 0-3.815.473-1.654.473-2.937 1.047-1.283.574-2.16 1.047-.844.473-1.384.473-.37 0-.675-.236-.27-.236-.473-.675-.17-.44-.27-1.08-.1-.64-.1-1.418 0-1.047.17-1.654.17-.608.64-1.08.473-.506 1.654-1.08 1.182-.608 2.768-1.114 1.587-.506 3.444-.8 1.89-.338 3.883-.338 3.545 0 6.043.71 2.532.675 4.153 2.127 1.62 1.418 2.363 3.68.743 2.262.743 5.368zm-8.34-12.897h-3.24q-2.06 0-3.51.304-1.452.304-2.363.912-.912.608-1.35 1.486-.405.844-.405 1.958 0 1.89 1.182 2.97 1.215 1.08 3.342 1.08 1.79 0 3.275-.912 1.52-.912 3.072-2.667z" fill="url(#D)"/><use xlink:href="#F" fill="url(#D)"/><use xlink:href="#F" x="17.015" fill="url(#E)"/></g></svg>