<svg xmlns="http://www.w3.org/2000/svg" xmlns:xlink="http://www.w3.org/1999/xlink" viewBox="0 0 951 190"><defs><linearGradient id="A" x1="149.96" y1="874.04" x2="874.04" y2="149.96" gradientUnits="userSpaceOnUse"><stop offset="0" stop-color="#fbb03b"/><stop offset="1" stop-color="#ed1e79"/></linearGradient><symbol id="B" viewBox="0 0 1024 1024"><circle cx="512" cy="512" r="512" fill="url(#A)"/><g fill="#fff"><path d="M710 400h53v207h-53zm-384.2 46.2l37.24 37.23 104.7-104.68-37.24-37.24-104.7 104.7z"/><path d="M421.9 349.2l-.3.3 37.2 37.2a247.43 247.43 0 0 0 71.62-151.31 194.58 194.58 0 0 0-51.7-11.48 194.75 194.75 0 0 1-56.83 125.28z"/><path d="M478.72 223.92a194.58 194.58 0 0 1 51.7 11.48 249.15 249.15 0 0 0-.74-55.47A248 248 0 0 0 475 171a196.43 196.43 0 0 1 3.72 52.92zM440.74 302a119.21 119.21 0 0 0-119.21 119.24v.15h-32.1A151.52 151.52 0 0 1 441 269.94h0V302z"/><path d="M408.68 295.78H441V396h-32.32zM289 421h32v126h-32z"/><path d="M710.37 606.5v.37c0 108-87.54 195.5-195.5 195.5s-195.5-87.54-195.5-195.5A194.73 194.73 0 0 1 364.42 482H364v-72.66c-59.4 45.58-98 117.2-98 197.16C266 742.82 378.18 855 514.5 855S763 742.82 763 606.5z"/><path d="M364 805c.06-119.67 80.5-220.53 190.28-251.5a263.55 263.55 0 0 0-.78 58.35 205.76 205.76 0 0 0-134.14 192.89v.26z"/><path d="M667.68 731.57l.32.3L628.85 771a260.36 260.36 0 0 1-75.35-159.15 204.36 204.36 0 0 1 54.4-12.07 204.86 204.86 0 0 0 59.78 131.79z"/><path d="M607.9 599.78a204.36 204.36 0 0 0-54.4 12.07 263.55 263.55 0 0 1 .78-58.35 260.79 260.79 0 0 1 57.5-9.45 206.62 206.62 0 0 0-3.88 55.73zm155.04-242.16a247.9 247.9 0 0 0-189.77 88.09l.73.58a489.41 489.41 0 0 1 187-36.86h.1v.83h2v-52.64z"/><path d="M710,403c-6.83-106.66-80.95-195-180.36-223.07a249.15,249.15,0,0,1,.74,55.47A195.66,195.66,0,0,1,657.31,403Z"/></g></symbol></defs><use width="1024" height="1024" transform="scale(.18)" xlink:href="#B"/><path d="M305.54 113.26a34.17 34.17 0 0 1-1.36 9.89 29.34 29.34 0 0 1-3.83 8.14 28.14 28.14 0 0 1-5.94 6.34 34.68 34.68 0 0 1-7.83 4.57 44.43 44.43 0 0 1-9.32 2.77 62.57 62.57 0 0 1-11.4.93h-29.74a6.22 6.22 0 0 1-3.82-1.37c-1.2-.9-1.8-2.5-1.8-4.8V38.2c0-2.3.6-3.9 1.8-4.8a6.2 6.2 0 0 1 3.82-1.36H262A60 60 0 0 1 278.71 34a29.43 29.43 0 0 1 10.86 5.63 23.22 23.22 0 0 1 6.56 9.06 31.88 31.88 0 0 1 2.2 12.14 30.62 30.62 0 0 1-1 7.74 25.82 25.82 0 0 1-2.86 6.82 23.36 23.36 0 0 1-4.72 5.61 25 25 0 0 1-6.56 4 27.65 27.65 0 0 1 8.71 3.21 26.75 26.75 0 0 1 7.1 5.95 27.69 27.69 0 0 1 4.79 8.45 31 31 0 0 1 1.75 10.65zm-22.8-50.95a23.06 23.06 0 0 0-1.14-7.47 13.88 13.88 0 0 0-3.6-5.68 16.07 16.07 0 0 0-6.4-3.56 36.2 36.2 0 0 0-10.45-1.23h-15.62v36.86h17.2a24.37 24.37 0 0 0 9.48-1.54 16.91 16.91 0 0 0 6-4.13 16.08 16.08 0 0 0 3.47-6.07 23.76 23.76 0 0 0 1.06-7.18zm6.87 51.82a22.9 22.9 0 0 0-1.63-9 17 17 0 0 0-4.74-6.51 20.94 20.94 0 0 0-7.82-4 43 43 0 0 0-11.8-1.37h-18.1v40.15h22a29.86 29.86 0 0 0 9-1.23 20.3 20.3 0 0 0 6.81-3.65 16.75 16.75 0 0 0 4.61-6 19.74 19.74 0 0 0 1.66-8.39zm55.6 29.57a1.9 1.9 0 0 1-.35 1.18 2.61 2.61 0 0 1-1.14.84 8.32 8.32 0 0 1-2.2.53 31.94 31.94 0 0 1-3.61.17 31 31 0 0 1-3.52-.17 9 9 0 0 1-2.24-.53 2.3 2.3 0 0 1-1.14-.84 2.1 2.1 0 0 1-.31-1.18V26.15a2.39 2.39 0 0 1 .31-1.23 2.28 2.28 0 0 1 1.14-.88 8.62 8.62 0 0 1 2.24-.52 28.54 28.54 0 0 1 3.52-.18 29.45 29.45 0 0 1 3.61.18 8 8 0 0 1 2.2.52 2.59 2.59 0 0 1 1.14.88 2.16 2.16 0 0 1 .35 1.23zm90.33.08a1.86 1.86 0 0 1-.71 1.59 5 5 0 0 1-1.93.79 18.32 18.32 0 0 1-3.61.26 19.7 19.7 0 0 1-3.65-.26 4.39 4.39 0 0 1-2-.79 2 2 0 0 1-.62-1.59v-7.9a39 39 0 0 1-11.57 8.62 30.69 30.69 0 0 1-13.5 3.08 37 37 0 0 1-11.31-1.63 24.33 24.33 0 0 1-8.62-4.71 21.14 21.14 0 0 1-5.54-7.56 25.07 25.07 0 0 1-2-10.21 23.56 23.56 0 0 1 2.73-11.61 22.5 22.5 0 0 1 7.83-8.18 38.53 38.53 0 0 1 12.49-4.89 77.92 77.92 0 0 1 16.63-1.63h10.95V91a30.9 30.9 0 0 0-1-8.1 14.06 14.06 0 0 0-3.1-5.85 13.46 13.46 0 0 0-5.59-3.52 26.1 26.1 0 0 0-8.41-1.19 33.61 33.61 0 0 0-9.63 1.28 50.77 50.77 0 0 0-7.48 2.82q-3.2 1.53-5.37 2.8a7.37 7.37 0 0 1-3.21 1.28 2.12 2.12 0 0 1-1.23-.36 2.91 2.91 0 0 1-.92-1 5.16 5.16 0 0 1-.57-1.8 18.17 18.17 0 0 1 .13-5.9 5 5 0 0 1 1.46-2.47 19.09 19.09 0 0 1 4.09-2.68A44.89 44.89 0 0 1 387 63.5a61.14 61.14 0 0 1 8.27-2.11 49.1 49.1 0 0 1 9.06-.83 47.59 47.59 0 0 1 14.52 1.93 23.45 23.45 0 0 1 9.68 5.68 21.9 21.9 0 0 1 5.36 9.28 44.67 44.67 0 0 1 1.68 12.93zm-14.43-36.16h-12.4a46.38 46.38 0 0 0-10.38 1 21.25 21.25 0 0 0-7.3 3 12.33 12.33 0 0 0-4.27 4.75 14.26 14.26 0 0 0-1.36 6.38 12.78 12.78 0 0 0 3.91 9.81q3.9 3.65 11 3.65a20.35 20.35 0 0 0 10.6-2.91 45.62 45.62 0 0 0 10.25-8.88zm95.43 32.12a13.88 13.88 0 0 1-.26 2.86 10 10 0 0 1-.62 1.93 2.15 2.15 0 0 1-1 1.06 3 3 0 0 1-1.32.31h-48.7a4 4 0 0 1-3-1.24c-.8-.82-1.2-2.2-1.2-4.13v-3a13.12 13.12 0 0 1 .17-2.2 12.72 12.72 0 0 1 .53-1.94 15 15 0 0 1 1-2.06l1.5-2.5 34.92-54.37h-33.93a2.52 2.52 0 0 1-2.24-1.45 9.8 9.8 0 0 1-.84-4.7 18.65 18.65 0 0 1 .18-2.77 6.21 6.21 0 0 1 .57-1.94 2.46 2.46 0 0 1 1-1.06 2.87 2.87 0 0 1 1.36-.3H510a5 5 0 0 1 1.71.26 3 3 0 0 1 1.28.88 4.64 4.64 0 0 1 .84 1.58 8.54 8.54 0 0 1 .3 2.47v2.8a12.57 12.57 0 0 1-.7 4.36 14.58 14.58 0 0 1-1 2.15l-1.5 2.55-34.76 54.38h37.13a2.72 2.72 0 0 1 1.28.3 2.59 2.59 0 0 1 1 1 7.34 7.34 0 0 1 .66 1.89 13.75 13.75 0 0 1 .28 2.88zm94.2-36.5a59.28 59.28 0 0 1-2.55 17.77 39.2 39.2 0 0 1-7.61 14 34.51 34.51 0 0 1-12.67 9.2 44 44 0 0 1-17.64 3.3 45.53 45.53 0 0 1-17-2.91 31 31 0 0 1-12.1-8.44 35.86 35.86 0 0 1-7.22-13.46 62.59 62.59 0 0 1-2.37-18A60.06 60.06 0 0 1 534.06 87a38.82 38.82 0 0 1 7.56-14 34.07 34.07 0 0 1 12.63-9.15 44.45 44.45 0 0 1 17.68-3.25 45.63 45.63 0 0 1 17 2.9 31.08 31.08 0 0 1 12.09 8.44 36.25 36.25 0 0 1 7.26 13.47 61.1 61.1 0 0 1 2.45 17.82zm-15 1a59.09 59.09 0 0 0-1.2-12.14 30 30 0 0 0-4-10 19.73 19.73 0 0 0-7.46-6.82 24.73 24.73 0 0 0-11.72-2.5A25.13 25.13 0 0 0 560.22 75a20.5 20.5 0 0 0-7.68 6.47 29 29 0 0 0-4.48 9.9 50.11 50.11 0 0 0-1.47 12.49 59.48 59.48 0 0 0 1.2 12.23 28.81 28.81 0 0 0 4 10 20 20 0 0 0 7.5 6.77 24.7 24.7 0 0 0 11.71 2.48 25 25 0 0 0 11.09-2.29 20.47 20.47 0 0 0 7.73-6.42 28 28 0 0 0 4.44-9.86 52.47 52.47 0 0 0 1.43-12.58zm86.5-34.53l-.08 3.26a7.93 7.93 0 0 1-.36 2.07 2.81 2.81 0 0 1-.66 1.14 1.46 1.46 0 0 1-1.1.4 4.71 4.71 0 0 1-1.71-.4l-2.3-.8-2.86-.75a16.06 16.06 0 0 0-3.43-.35 11 11 0 0 0-4.31.88 16.76 16.76 0 0 0-4.44 2.9 36.38 36.38 0 0 0-4.89 5.37q-2.55 3.34-5.63 8.18v52.1a2 2 0 0 1-.35 1.18 2.61 2.61 0 0 1-1.14.84 8.32 8.32 0 0 1-2.2.53 31.94 31.94 0 0 1-3.61.17 31 31 0 0 1-3.52-.17 9 9 0 0 1-2.24-.53 2.38 2.38 0 0 1-1.15-.84 2.18 2.18 0 0 1-.3-1.18V64.5a2.39 2.39 0 0 1 .26-1.18 2.36 2.36 0 0 1 1.06-.88 5.81 5.81 0 0 1 2-.53 31.38 31.38 0 0 1 3.26-.13 31.76 31.76 0 0 1 3.21.13 5.13 5.13 0 0 1 2 .53 2.79 2.79 0 0 1 1 .88 2.2 2.2 0 0 1 .31 1.18V76a60.29 60.29 0 0 1 6.11-7.74 33.49 33.49 0 0 1 5.41-4.71 16.88 16.88 0 0 1 5.06-2.38 19.79 19.79 0 0 1 5.06-.65c.76 0 1.63 0 2.6.13a23.55 23.55 0 0 1 3 .48 28.14 28.14 0 0 1 2.86.79 6.21 6.21 0 0 1 1.8.88 2.57 2.57 0 0 1 .71.84 5.14 5.14 0 0 1 .3 1 10.94 10.94 0 0 1 .18 1.8c.08.85.1 1.92.1 3.26zm93.24 33.35a70.23 70.23 0 0 1-2.25 18.52 41.15 41.15 0 0 1-6.59 14 29.22 29.22 0 0 1-10.69 8.89 32.89 32.89 0 0 1-14.52 3.08 30.86 30.86 0 0 1-7-.75 25 25 0 0 1-6.29-2.42 38.17 38.17 0 0 1-6.15-4.22 74.8 74.8 0 0 1-6.51-6.16v9.68a2.12 2.12 0 0 1-.36 1.23 2.27 2.27 0 0 1-1.14.83 9.22 9.22 0 0 1-2 .49 22.65 22.65 0 0 1-3 .17 22.91 22.91 0 0 1-3-.17 9.19 9.19 0 0 1-2-.49 1.85 1.85 0 0 1-1.06-.83 2.79 2.79 0 0 1-.26-1.23V26.15a2.39 2.39 0 0 1 .31-1.23 2.28 2.28 0 0 1 1.14-.88 8.71 8.71 0 0 1 2.25-.52 28.36 28.36 0 0 1 3.51-.18 29.45 29.45 0 0 1 3.61.18 8 8 0 0 1 2.2.52 2.59 2.59 0 0 1 1.14.88 2.17 2.17 0 0 1 .36 1.23v47.43a57.58 57.58 0 0 1 6.83-6.07 39.8 39.8 0 0 1 6.46-4 29 29 0 0 1 6.34-2.24 30.68 30.68 0 0 1 6.68-.7 29.67 29.67 0 0 1 14.7 3.43 28.38 28.38 0 0 1 9.94 9.19 40.44 40.44 0 0 1 5.59 13.51 73.79 73.79 0 0 1 1.76 16.35zm-15.05 1.67a73.4 73.4 0 0 0-.93-11.79 33.13 33.13 0 0 0-3.23-10.12 19.59 19.59 0 0 0-6.11-7.08 16 16 0 0 0-9.47-2.68 19.83 19.83 0 0 0-5.57.79 21 21 0 0 0-5.58 2.64 41.58 41.58 0 0 0-5.89 4.75 69.47 69.47 0 0 0-6.5 7.3v31.6a60.07 60.07 0 0 0 11.5 11.13 19.71 19.71 0 0 0 11.42 3.82 16.35 16.35 0 0 0 9.39-2.64 20.13 20.13 0 0 0 6.32-7 33.56 33.56 0 0 0 3.55-9.77 55 55 0 0 0 1.1-10.94zm100.36 39.06a1.85 1.85 0 0 1-.7 1.59 5.06 5.06 0 0 1-1.94.79 18.14 18.14 0 0 1-3.6.26 19.82 19.82 0 0 1-3.66-.26 4.3 4.3 0 0 1-2-.79 2 2 0 0 1-.62-1.59v-7.9a39.15 39.15 0 0 1-11.57 8.62 30.7 30.7 0 0 1-13.51 3.08 36.93 36.93 0 0 1-11.3-1.63 24.24 24.24 0 0 1-8.62-4.71 21 21 0 0 1-5.55-7.56 25.23 25.23 0 0 1-2-10.21 23.56 23.56 0 0 1 2.72-11.61 22.66 22.66 0 0 1 7.83-8.18 38.59 38.59 0 0 1 12.5-4.89 77.83 77.83 0 0 1 16.62-1.63h10.9V91a30.93 30.93 0 0 0-1-8.1 14 14 0 0 0-3.13-5.85 13.49 13.49 0 0 0-5.58-3.52 26.14 26.14 0 0 0-8.45-1.19 33.56 33.56 0 0 0-9.63 1.28 50.77 50.77 0 0 0-7.48 2.82q-3.2 1.53-5.37 2.8a7.46 7.46 0 0 1-3.21 1.28 2.12 2.12 0 0 1-1.23-.36 3 3 0 0 1-.93-1 5.61 5.61 0 0 1-.57-1.8 15.15 15.15 0 0 1-.17-2.42 15.89 15.89 0 0 1 .3-3.48 5.08 5.08 0 0 1 1.5-2.42 19.09 19.09 0 0 1 4.09-2.68 44.89 44.89 0 0 1 6.69-2.82 61.14 61.14 0 0 1 8.27-2.11 49.1 49.1 0 0 1 9.06-.83 47.59 47.59 0 0 1 14.52 1.93 23.41 23.41 0 0 1 9.67 5.68 21.81 21.81 0 0 1 5.37 9.28 45 45 0 0 1 1.67 12.93zm-14.43-36.16H834a46.38 46.38 0 0 0-10.38 1 21.31 21.31 0 0 0-7.31 3 12.39 12.39 0 0 0-4.26 4.75 14.26 14.26 0 0 0-1.37 6.38 12.79 12.79 0 0 0 3.92 9.81q3.9 3.65 11 3.65a20.33 20.33 0 0 0 10.6-2.91 45.19 45.19 0 0 0 10.25-8.88zm59.45 36.08a1.9 1.9 0 0 1-.35 1.18 2.61 2.61 0 0 1-1.14.84 8.32 8.32 0 0 1-2.2.53 31.94 31.94 0 0 1-3.61.17 31 31 0 0 1-3.52-.17 9 9 0 0 1-2.24-.53 2.3 2.3 0 0 1-1.14-.84 2.1 2.1 0 0 1-.31-1.18V26.15a2.39 2.39 0 0 1 .31-1.23 2.28 2.28 0 0 1 1.14-.88 8.62 8.62 0 0 1 2.24-.52 28.54 28.54 0 0 1 3.52-.18 29.45 29.45 0 0 1 3.61.18 8 8 0 0 1 2.2.52 2.59 2.59 0 0 1 1.14.88 2.16 2.16 0 0 1 .35 1.23zm45.2 0a2 2 0 0 1-.35 1.18 2.71 2.71 0 0 1-1.15.84 8.22 8.22 0 0 1-2.2.53 31.74 31.74 0 0 1-3.6.17 31 31 0 0 1-3.52-.17 9.09 9.09 0 0 1-2.25-.53 2.39 2.39 0 0 1-1.14-.84 2.1 2.1 0 0 1-.31-1.18V26.15a2.07 2.07 0 0 1 1.45-2.15 8.71 8.71 0 0 1 2.25-.52 28.54 28.54 0 0 1 3.52-.18 29.28 29.28 0 0 1 3.6.18 7.9 7.9 0 0 1 2.2.52 2.68 2.68 0 0 1 1.15.88 2.24 2.24 0 0 1 .35 1.23z" fill="#f80"/></svg>